<svg width="150" viewBox="0 0 374.66666666666663 86.16413130388088" className="css-1j8o68f">
    <defs id="SvgjsDefs1456">
        <linearGradient id="SvgjsLinearGradient1461">
            <stop id="SvgjsStop1462" stop-color="#ee2a44" offset="0"></stop> <!-- #ee2a7b -->
            <stop id="SvgjsStop1463" stop-color="#ff7d7d" offset="1"></stop><!-- #ff7db8 -->
        </linearGradient>
        <linearGradient id="SvgjsLinearGradient1464">
            <stop id="SvgjsStop1465" stop-color="#ee2a44" offset="0"></stop>
            <stop id="SvgjsStop1466" stop-color="#ff7d7d" offset="1"></stop>
        </linearGradient>
    </defs>
    <g id="SvgjsG1457"
        transform="matrix(0.9917602903755971,0,0,0.9917602903755971,-7.425629441515592,-6.0160179062853105)"
        fill="url(#SvgjsLinearGradient1461)">
        <rect xmlns="http://www.w3.org/2000/svg" x="34.571" y="16.321" fill="url(#SvgjsLinearGradient1461)"
            width="5.716" height="5.716"></rect>
        <rect xmlns="http://www.w3.org/2000/svg" x="34.571" y="28.368" fill="url(#SvgjsLinearGradient1461)"
            width="5.716" height="5.716"></rect>
        <rect xmlns="http://www.w3.org/2000/svg" x="34.571" y="40.416" fill="url(#SvgjsLinearGradient1461)"
            width="5.716" height="5.716"></rect>
        <rect xmlns="http://www.w3.org/2000/svg" x="34.571" y="52.464" fill="url(#SvgjsLinearGradient1461)"
            width="5.716" height="5.716"></rect>
        <rect xmlns="http://www.w3.org/2000/svg" x="80.349" y="16.321" fill="url(#SvgjsLinearGradient1461)"
            width="5.716" height="5.716"></rect>
        <rect xmlns="http://www.w3.org/2000/svg" x="80.349" y="28.368" fill="url(#SvgjsLinearGradient1461)"
            width="5.716" height="5.716"></rect>
        <rect xmlns="http://www.w3.org/2000/svg" x="80.349" y="40.416" fill="url(#SvgjsLinearGradient1461)"
            width="5.716" height="5.716"></rect>
        <rect xmlns="http://www.w3.org/2000/svg" x="80.349" y="52.464" fill="url(#SvgjsLinearGradient1461)"
            width="5.716" height="5.716"></rect>
        <path xmlns="http://www.w3.org/2000/svg" fill="url(#SvgjsLinearGradient1461)"
            d="M52.324,50.356c-0.188,0-0.375-0.048-0.546-0.142c-0.354-0.199-0.572-0.572-0.572-0.975V26.271  c0-0.404,0.218-0.777,0.572-0.975c0.354-0.194,0.786-0.19,1.13,0.024l18.704,11.483c0.332,0.203,0.532,0.563,0.532,0.951  c0,0.389-0.201,0.749-0.532,0.951L52.909,50.19C52.73,50.301,52.527,50.356,52.324,50.356z M53.442,28.268v18.974l15.45-9.488  L53.442,28.268z">
        </path>
        <path xmlns="http://www.w3.org/2000/svg" fill="url(#SvgjsLinearGradient1461)"
            d="M81.978,8.301c4.025,0,7.3,3.275,7.3,7.3V59.3c0,4.025-3.275,7.3-7.3,7.3H38.279c-4.025,0-7.3-3.275-7.3-7.3  V15.601c0-4.025,3.275-7.3,7.3-7.3H81.978 M81.978,6.066H38.279c-5.266,0-9.535,4.269-9.535,9.535V59.3  c0,5.266,4.269,9.535,9.535,9.535h43.699c5.266,0,9.535-4.269,9.535-9.535V15.601C91.512,10.335,87.243,6.066,81.978,6.066  L81.978,6.066z">
        </path>
        <path xmlns="http://www.w3.org/2000/svg" fill="url(#SvgjsLinearGradient1461)"
            d="M74.63,71.069h-2.299l0.225,0.924c0.478,1.957,0.164,3.985-0.884,5.706  c-1.048,1.722-2.704,2.931-4.661,3.409l-38.573,9.386c-1.953,0.474-3.98,0.164-5.706-0.886c-1.722-1.047-2.931-2.704-3.409-4.661  l-9.383-38.57c-0.478-1.957-0.161-3.985,0.886-5.706c1.047-1.722,2.704-2.931,4.661-3.409l11.023-2.682V32.28l-11.551,2.809  c-2.538,0.618-4.683,2.187-6.043,4.419c-1.357,2.23-1.765,4.858-1.148,7.396l9.386,38.57c0.615,2.538,2.184,4.683,4.417,6.043  c1.552,0.943,3.293,1.429,5.065,1.429c0.775,0,1.558-0.094,2.331-0.284l38.573-9.386c2.538-0.615,4.683-2.184,6.04-4.417  c1.36-2.23,1.765-4.858,1.148-7.396L74.63,71.069z">
        </path>
    </g>
    <g id="SvgjsG1458"
        transform="matrix(3.6794824436491345,0,0,3.6794824436491345,103.73180268132542,-4.414590208176936)"
        fill="url(#SvgjsLinearGradient1464)">
        <path
            d="M16.98 20 l-2.98 0 l0 -5.64 c0 -1.52 -0.42 -2.16 -1.54 -2.16 c-1.2 0 -1.9 0.64 -1.9 2.16 l0 5.64 l-2.98 0 l0 -5.64 c0 -1.52 -0.4 -2.16 -1.54 -2.16 c-1.2 0 -1.92 0.64 -1.92 2.16 l0 5.64 l-2.96 0 l0 -9.88 l2.96 0 l0 0.9 c0.7 -0.7 1.76 -1.04 2.7 -1.04 c1.4 0 2.3 0.52 2.94 1.34 c0.54 -0.66 1.7 -1.26 3.44 -1.34 c2.78 0 3.78 1.32 3.78 4.38 l0 5.64 z M23.467708333333334 12.42 c-1.22 0 -2.24 1.08 -2.24 2.66 c0 1.56 1.02 2.64 2.24 2.64 c1.24 0 2.26 -1.08 2.26 -2.64 c0 -1.58 -1.02 -2.66 -2.26 -2.66 z M23.467708333333334 9.98 c2.9 0 5.22 2.18 5.22 5.1 s-2.32 5.08 -5.22 5.08 c-2.88 0 -5.2 -2.16 -5.2 -5.08 s2.32 -5.1 5.2 -5.1 z M34.83541666666667 20 l-1.94 0 l-4.18 -9.88 l3.06 0 l2.08 5.64 c0.68 -1.72 1.44 -3.98 2.08 -5.64 l3.04 0 z M42.523125 10.12 l0 9.88 l-2.96 0 l0 -9.88 l2.96 0 z M42.603125 7.279999999999999 c0 0.84 -0.68 1.5 -1.58 1.5 c-0.86 0 -1.56 -0.66 -1.56 -1.5 c0 -0.82 0.7 -1.46 1.56 -1.46 c0.9 0 1.58 0.64 1.58 1.46 z M54.01083333333333 15.08 l0 0.66 l-7.04 0 c0 1.16 1.18 1.98 2.16 1.98 c0.96 0 1.84 -0.38 2.3 -1.22 l1.98 1.82 c-0.8 1.08 -2.02 1.84 -4.28 1.84 c-3.24 0 -5.22 -2.16 -5.22 -5.08 s1.92 -5.1 5.04 -5.1 s5.06 2.14 5.06 5.1 z M47.030833333333334 13.86 l3.88 0 c-0.16 -0.94 -0.84 -1.44 -1.96 -1.44 c-1.08 0 -1.74 0.58 -1.92 1.44 z M62.80624999999999 13.04 l-2.2 -1.26 c1.1 -1.24 2.58 -1.82 4.12 -1.82 c2.96 0 4.16 1.62 4.16 3.14 l0 6.9 l-2.96 0 l0 -0.7 c-0.46 0.48 -1.28 0.84 -2.2 0.84 c-2.7 0 -3.74 -1.2 -3.74 -3.04 c0 -2.08 1.68 -3.48 4.4 -3.48 l1.54 0 c0 -0.74 -0.56 -1.22 -1.4 -1.22 c-0.86 0 -1.28 0.16 -1.72 0.64 z M65.92625 16.740000000000002 l0 -0.88 l-1.74 0 c-0.78 0 -1.36 0.54 -1.24 1.3 c0.08 0.54 0.56 0.76 1.24 0.76 c1.3 0 1.74 -0.74 1.74 -1.18 z M73.55395833333333 10.12 l0 9.88 l-2.96 0 l0 -9.88 l2.96 0 z M73.63395833333333 7.279999999999999 c0 0.84 -0.68 1.5 -1.58 1.5 c-0.86 0 -1.56 -0.66 -1.56 -1.5 c0 -0.82 0.7 -1.46 1.56 -1.46 c0.9 0 1.58 0.64 1.58 1.46 z">
        </path>
    </g>
</svg>